<?xml version="1.0" standalone="no"?>
<!DOCTYPE svg PUBLIC "-//W3C//DTD SVG 20010904//EN"
 "http://www.w3.org/TR/2001/REC-SVG-20010904/DTD/svg10.dtd">
<svg version="1.0" xmlns="http://www.w3.org/2000/svg"
 width="200.000000pt" height="200.000000pt" viewBox="0 0 200.000000 200.000000"
 preserveAspectRatio="xMidYMid meet">

<g transform="translate(0.000000,200.000000) scale(0.100000,-0.100000)"
fill="#000000" stroke="none">
<path d="M391 1284 c-15 -19 -21 -41 -21 -78 l0 -52 -44 -12 c-55 -14 -113
-64 -137 -117 -20 -43 -26 -135 -9 -135 6 0 10 21 10 48 0 84 75 176 152 189
35 5 37 4 47 -33 6 -21 9 -38 8 -39 -1 -1 -17 -7 -35 -15 -40 -16 -66 -62 -58
-102 7 -35 -38 -122 -57 -111 -7 3 -23 14 -38 24 -24 17 -26 17 -37 -2 -11
-16 -8 -22 23 -41 38 -25 39 -26 26 -47 -8 -12 -17 -10 -51 13 -23 15 -43 26
-44 24 -1 -2 -7 -10 -14 -19 -10 -14 -4 -21 47 -53 32 -20 61 -36 64 -36 3 0
16 17 28 38 88 143 88 144 112 127 47 -33 132 -7 168 52 18 29 21 45 16 98 -4
56 -2 65 14 70 29 9 69 64 69 94 0 15 -10 38 -21 50 -18 19 -28 22 -60 17 -29
-5 -39 -3 -39 8 0 27 -41 66 -70 66 -19 0 -36 -9 -49 -26z m138 -267 c32 -95
-88 -199 -165 -143 -26 20 -6 39 43 40 49 1 74 39 56 86 -11 28 -10 32 10 40
37 15 45 11 56 -23z m-166 -28 c-10 -17 -24 -35 -30 -41 -22 -18 -15 30 7 52
30 30 43 24 23 -11z m83 -4 c7 -29 -10 -55 -37 -55 -24 0 -24 14 -2 51 21 36
31 37 39 4z"/>
<path d="M830 1160 c-6 -11 -10 -55 -8 -98 3 -69 5 -77 23 -77 17 0 21 8 25
49 l5 49 23 -47 c12 -26 28 -46 35 -44 6 2 22 23 34 47 l22 43 3 -49 c3 -44 5
-48 31 -51 l28 -3 -3 98 -3 98 -30 0 c-26 0 -33 -7 -54 -50 l-24 -50 -24 53
c-19 42 -29 52 -48 52 -14 0 -29 -9 -35 -20z"/>
<path d="M1576 1164 c-9 -24 -7 -157 3 -172 5 -8 17 -12 27 -10 14 2 20 14 24
48 6 58 24 58 30 0 4 -40 8 -45 30 -45 23 0 25 4 28 53 4 67 -10 86 -55 79
-32 -6 -33 -5 -33 29 0 29 -3 34 -24 34 -13 0 -27 -7 -30 -16z"/>
<path d="M1292 1158 c-6 -6 -12 -20 -12 -30 0 -10 -4 -18 -10 -18 -5 0 -10 -7
-10 -15 0 -8 5 -15 10 -15 6 0 10 -17 10 -38 0 -45 14 -62 52 -62 21 0 31 6
38 26 14 35 13 36 -10 29 -16 -5 -20 -2 -20 19 0 16 6 26 15 26 8 0 15 7 15
15 0 8 -6 15 -14 15 -9 0 -16 12 -18 27 -3 30 -26 41 -46 21z"/>
<path d="M1100 1100 c-19 -35 -12 -97 12 -114 12 -8 26 -12 31 -9 6 3 28 5 49
5 l39 -2 -3 67 -3 68 -57 2 c-48 2 -60 -1 -68 -17z m78 -56 c-2 -15 -8 -29
-14 -31 -16 -5 -25 37 -13 60 14 26 32 8 27 -29z"/>
<path d="M1422 1097 c-39 -41 -25 -97 29 -116 36 -13 82 3 87 30 2 13 -5 16
-35 15 -36 -1 -38 0 -38 32 0 17 4 32 10 32 5 0 10 -10 10 -23 0 -27 33 -30
49 -4 17 27 -4 52 -50 55 -31 2 -44 -2 -62 -21z"/>
<path d="M1765 1097 c-19 -27 -19 -77 -1 -102 10 -14 25 -18 67 -16 29 1 57 5
62 10 4 4 7 35 5 67 l-3 59 -57 2 c-49 2 -60 -1 -73 -20z m75 -53 c0 -24 -4
-34 -12 -32 -15 5 -22 42 -14 64 10 25 26 5 26 -32z"/>
</g>
</svg>
